<svg xmlns="http://www.w3.org/2000/svg" xmlns:xlink="http://www.w3.org/1999/xlink" xmlns:lucid="lucid" width="1195" height="544"><g transform="translate(-49 -30)" lucid:page-tab-id="0_0"><path d="M0 0h1632.84v1081.14H0z" fill="#fff"/><path d="M139.03 100.7a8 8 0 0 1 8-8h144a8 8 0 0 1 8 8v76.78a8 8 0 0 1-8 8h-144a8 8 0 0 1-8-8z" stroke="#000" stroke-opacity="0" stroke-width="2" fill="#cfe4ff"/><use xlink:href="#a" transform="matrix(1,0,0,1,151.03401541323404,104.68934360882274) translate(51.50401458072919 37.532592339150206)"/><path d="M139.03 262.9a8 8 0 0 1 8-8h144a8 8 0 0 1 8 8v76.78a8 8 0 0 1-8 8h-144a8 8 0 0 1-8-8zM139.03 425.1a8 8 0 0 1 8-8h144a8 8 0 0 1 8 8v76.8a8 8 0 0 1-8 8h-144a8 8 0 0 1-8-8z" stroke="#000" stroke-opacity="0" stroke-width="2" fill="#cfe4ff"/><use xlink:href="#b" transform="matrix(1,0,0,1,151.03401541323404,429.10204623970225) translate(51.50401458072919 37.532592339150206)"/><path d="M300.53 141h721.6M300.57 141h-1.54" stroke="#666" stroke-width="3" fill="none"/><path d="M1037.9 141l-14.27 4.65v-9.28z" stroke="#666" stroke-width="3" fill="#666"/><path d="M300.53 301.3h14.72m14.7 0l29.43-.02m14.7 0h29.43m14.72 0h29.42m14.7 0h29.43m14.7 0l29.43-.02m14.72 0h29.42m14.7 0h29.43m14.7 0h29.43m14.7 0l14.72-.02" stroke="#666" stroke-width="3" fill="none"/><path d="M300.57 302.76h-1.54v-2.94h1.54z" stroke="#666" stroke-width=".05" fill="#666"/><path d="M713.5 301.24l-14.28 4.64v-9.27z" stroke="#666" stroke-width="3" fill="#666"/><path d="M300.53 464.6h721.6" stroke="#666" stroke-width="3" fill="none"/><path d="M300.57 466.08h-1.54v-2.95h1.54z" stroke="#666" stroke-width=".05" fill="#666"/><path d="M1037.9 464.6l-14.27 4.64v-9.27z" stroke="#666" stroke-width="3" fill="#666"/><path d="M1042.76 101.8a8 8 0 0 1 8-8h144a8 8 0 0 1 8 8v76.8a8 8 0 0 1-8 8h-144a8 8 0 0 1-8-8z" stroke="#000" stroke-opacity="0" stroke-width="2" fill="#cfe4ff"/><use xlink:href="#a" transform="matrix(1,0,0,1,1054.755115599256,105.79688180732397) translate(51.50401458072919 37.532592339150206)"/><path d="M1042.76 426.2a8 8 0 0 1 8-8h144a8 8 0 0 1 8 8V503a8 8 0 0 1-8 8h-144a8 8 0 0 1-8-8z" stroke="#000" stroke-opacity="0" stroke-width="2" fill="#cfe4ff"/><use xlink:href="#b" transform="matrix(1,0,0,1,1054.755115599256,430.2095844382034) translate(51.50401458072919 37.532592339150206)"/><path d="M1114.22 413.36l-.1-.15-.36-.66-.4-.84-.5-1.08-.53-1.4-.65-1.87-.76-2.57-.92-3.64-1.12-5.38-1.37-8.3-1.6-13.35-1.74-21.84-1.26-33.12.12-38.74 1.37-31.6 1.73-20.4 1.6-12.47 1.32-7.8v-.05m22.24-16.65l.08.15.37.67.4.85.5 1.08.53 1.4.65 1.87.76 2.57.9 3.64 1.13 5.38 1.36 8.3 1.62 13.34 1.73 21.86 1.26 33.1-.1 38.76-1.38 31.58-1.74 20.42-1.6 12.47-1.32 7.78v.06" stroke="#fc9432" stroke-width="2" fill="none"/><path d="M1115.57 413.67l-1.63 1.08-.56-.86 1.62-1.08z" stroke="#fc9432" stroke-width=".05" fill="#fc9432"/><path d="M1113.75 193.66v15l-8.82-2.87z" stroke="#fc9432" stroke-width="2" fill="#fc9432"/><path d="M1132.13 190.9l-1.62 1.08-.56-.86 1.63-1.07z" stroke="#fc9432" stroke-width=".05" fill="#fc9432"/><path d="M1131.76 411.13v-15l8.82 2.87z" stroke="#fc9432" stroke-width="2" fill="#fc9432"/><path d="M138.15 139.55l-.5.25-1.4.8-1.4.9-1.46 1-1.48 1.12-1.52 1.25-1.55 1.4-1.6 1.55-1.66 1.76-1.73 1.98-1.78 2.24-1.87 2.55-1.93 2.9-2.02 3.32-2.1 3.83-2.22 4.42-2.3 5.15-2.4 6.03-2.48 7.07-2.53 8.36-2.56 9.9-2.52 11.7-2.37 13.88-2.08 16.34-1.62 19-.95 21.7L90 303l.47 24.47 1 16.08 1.25 12.05 1.44 9.76 1.6 8.37 1.74 7.5 1.94 6.95 2.18 6.7 2.5 6.7 2.9 6.94 3.6 7.64 4.77 9.07 7.3 12.6 6.4 10.06" stroke="#fc9432" stroke-width="2" stroke-linejoin="round" fill="none"/><path d="M139.03 140.18l-.46.24-.9-1.73 1.36-.7z" stroke="#fc9432" stroke-width=".05" fill="#fc9432"/><path d="M137.3 460.77l-11.58-9.55 7.82-4.98z" stroke="#fc9432" stroke-width="2" fill="#fc9432"/><path d="M219.03 253.9v-2.08m0-8.32v-4.16m0-8.32v-4.16m0-8.32v-4.16m0-8.32v-2.08" stroke="#e81313" stroke-width="2" fill="none"/><path d="M220 254.9h-1.94v-1.03H220z" stroke="#e81313" stroke-width=".05" fill="#e81313"/><path d="M219.03 188.7l4.64 14.28h-9.27z" stroke="#e81313" stroke-width="2" fill="#e81313"/><path d="M217.33 416.1v-49.9" stroke="#fc9432" stroke-width="2" fill="none"/><path d="M218.3 417.1h-1.94v-1.02h1.95z" stroke="#fc9432" stroke-width=".05" fill="#fc9432"/><path d="M217.33 350.92l4.64 14.27h-9.27z" stroke="#fc9432" stroke-width="2" fill="#fc9432"/><path d="M294.6 345.27l-.97 1.7-59-34.27v-2.26zm-92.97-53.98v2.24l-60-34.82 1-1.7z" stroke="#e81313" stroke-width=".05" fill="#e81313"/><path d="M142.64 257.04l-.98 1.7-1.04-.62.76-.88.65-.55z" fill="#e81313"/><path stroke="#e81313" stroke-width=".05" fill="#e81313"/><path d="M295.9 346.02l-.16.14-1.07.65-.75.32-.3-.18.97-1.68z" fill="#e81313"/><path stroke="#e81313" stroke-width=".05" fill="#e81313"/><use xlink:href="#c" transform="matrix(1,0,0,1,201.6306300829812,289.3250937366555) translate(0.004999999999997229 18.126342339150206)"/><path d="M201.63 312.32l-58.67 33.57-.97-1.7 59.63-34.13zm94.37-54l-61.38 35.12v-2.25l60.4-34.58z" stroke="#e81313" stroke-width=".05" fill="#e81313"/><path d="M143 345.88l-.6.33-1.02-.86-.46-.53 1.1-.62z" fill="#e81313"/><path stroke="#e81313" stroke-width=".05" fill="#e81313"/><path d="M295.74 256.42l.95.82.38.45-1.1.63-.98-1.7.56-.3z" fill="#e81313"/><path stroke="#e81313" stroke-width=".05" fill="#e81313"/><path d="M347.58 138.53l.03-33.84a12 12 0 0 1 12.02-12H592a12 12 0 0 1 12 12v19.93M347.58 138.52v.5" stroke="#666" fill="none"/><path d="M604 139.4l-4.65-14.27h9.27z" stroke="#666" fill="#666"/><path d="M370.76 77.52a8 8 0 0 1 8-8H571.3a8 8 0 0 1 8 8v7.17a8 8 0 0 1-8 8H378.77a8 8 0 0 1-8-8z" fill="none"/><use xlink:href="#d" transform="matrix(1,0,0,1,370.75737443529096,69.51700770661706) translate(1.752590343781602 18.7124395069892)"/><path d="M394.17 284.9h-.95v-63.5h.95zm0-87.63h-.95V141.5h.95z" stroke="#666" stroke-width=".05" fill="#666"/><path d="M394.17 141.52h-.95v-.5h.95z" stroke="#666" stroke-width=".05" fill="#666"/><path d="M393.7 299.66l-4.64-14.27h9.27z" fill="#666"/><path d="M393.7 301.2l-5.3-16.28H399zm-3.98-15.33l3.98 12.25 3.98-12.25z" stroke="#666" stroke-width=".05" fill="#666"/><path d="M440.27 123.86a8 8 0 0 1 8-8H571.3a8 8 0 0 1 8 8v7.27a8 8 0 0 1-8 8H448.28a8 8 0 0 1-8-8z" fill="none"/><use xlink:href="#e" transform="matrix(1,0,0,1,440.27438214190806,115.86167951102844) translate(14.377342140994553 17.964977560775424)"/><use xlink:href="#f" transform="matrix(1,0,0,1,440.27438214190806,115.86167951102844) translate(60.7295570234991 17.964977560775424)"/><use xlink:href="#g" transform="matrix(1,0,0,1,440.27438214190806,115.86167951102844) translate(88.54088595300182 17.964977560775424)"/><path d="M410.9 284.9h-.94v-63.5h.95zm0-87.63h-.94V141.5h.95z" stroke="#666" stroke-width=".05" fill="#666"/><path d="M410.9 141.52h-.94v-.5h.95z" stroke="#666" stroke-width=".05" fill="#666"/><path d="M410.44 299.66l-4.64-14.27h9.27z" fill="#666"/><path d="M410.44 301.2l-5.3-16.28h10.58zm-4-15.33l4 12.25 3.98-12.25z" stroke="#666" stroke-width=".05" fill="#666"/><use xlink:href="#h" transform="matrix(1,0,0,1,372.5810784013842,197.26946739845658) translate(0.004999999999999005 18.7124395069892)"/><path d="M428.48 284.9h-.96v-63.5h.96zm0-87.63h-.96V141.5h.96z" stroke="#666" stroke-width=".05" fill="#666"/><path d="M428.48 141.52h-.96v-.5h.96z" stroke="#666" stroke-width=".05" fill="#666"/><path d="M428 299.66l-4.63-14.27h9.26z" fill="#666"/><path d="M428 301.2l-5.3-16.28h10.6zm-3.98-15.33L428 298.1l3.98-12.25z" stroke="#666" stroke-width=".05" fill="#666"/><path d="M625.65 517.9a8 8 0 0 1 8-8H826.2a8 8 0 0 1 8 8v7.16a8 8 0 0 1-8 8H633.65a8 8 0 0 1-8-8z" fill="none"/><use xlink:href="#i" transform="matrix(1,0,0,1,625.6530693595536,509.890792252721) translate(45.01465756745252 18.7124395069892)"/><path d="M626.13 461h-.95v-48.28h.95zm0-72.4h-.95V317.6h.95z" stroke="#666" stroke-width=".05" fill="#666"/><path d="M630.3 317.12H621l4.63-14.26z" fill="#666"/><path d="M630.94 317.6h-10.58l5.3-16.28zm-9.27-.95h7.97l-4-12.25zM626.13 461.5h-.95v-.5h.95zM642.87 461h-.95v-48.28h.95zm0-72.4h-.95V317.6h.95z" stroke="#666" stroke-width=".05" fill="#666"/><path d="M647.03 317.12h-9.27l4.63-14.26z" fill="#666"/><path d="M647.68 317.6H637.1l5.3-16.28zm-9.27-.95h7.97l-3.98-12.25zM642.87 461.5h-.95v-.5h.95z" stroke="#666" stroke-width=".05" fill="#666"/><use xlink:href="#h" transform="matrix(1,0,0,1,604.536414824489,388.5921300714911) translate(0.004999999999999005 18.7124395069892)"/><path d="M660.43 461h-.95v-48.28h.95zm0-72.4h-.95V317.6h.95z" stroke="#666" stroke-width=".05" fill="#666"/><path d="M664.6 317.12h-9.28l4.63-14.26z" fill="#666"/><path d="M665.24 317.6h-10.57l5.3-16.28zm-9.27-.95h7.97l-4-12.25zM660.43 461.5h-.95v-.5h.95z" stroke="#666" stroke-width=".05" fill="#666"/><path d="M659.3 471.45a8 8 0 0 1 8-8H849.4a8 8 0 0 1 8 8v30.44a8 8 0 0 1-8 8H667.3a8 8 0 0 1-8-8z" fill="none"/><use xlink:href="#j" transform="matrix(1,0,0,1,659.3083975551422,463.44671804411377) translate(12.977 20.715006972702962)"/><use xlink:href="#f" transform="matrix(1,0,0,1,659.3083975551422,463.44671804411377) translate(59.329214882504544 20.715006972702962)"/><use xlink:href="#k" transform="matrix(1,0,0,1,659.3083975551422,463.44671804411377) translate(87.14054381200727 20.715006972702962)"/><use xlink:href="#l" transform="matrix(1,0,0,1,659.3083975551422,463.44671804411377) translate(12.977 38.21494814884788)"/><use xlink:href="#m" transform="matrix(1,0,0,1,659.3083975551422,463.44671804411377) translate(68.59965785900545 38.21494814884788)"/><use xlink:href="#n" transform="matrix(1,0,0,1,659.3083975551422,463.44671804411377) translate(87.14054381200727 38.21494814884788)"/><path d="M881.77 464.1h-.94v-70.16h.94zm0-306.7v212.4h-.94V157.4zM881.77 464.6h-.94v-.5h.94z" stroke="#666" stroke-width=".05" fill="#666"/><path d="M885.94 156.9h-9.28l4.64-14.27z" fill="#666"/><path d="M886.6 157.37H876l5.3-16.28zm-9.28-.95h7.96l-3.98-12.25z" stroke="#666" stroke-width=".05" fill="#666"/><g><use xlink:href="#o" transform="matrix(1,0,0,1,821.8143245917361,369.8128640620957) translate(0.004999999999999005 18.7124395069892)"/></g><path d="M880.55 123.86a8 8 0 0 1 8-8h123.03a8 8 0 0 1 8 8v7.27a8 8 0 0 1-8 8H888.55a8 8 0 0 1-8-8z" fill="none"/><g><use xlink:href="#e" transform="matrix(1,0,0,1,880.5487642838161,115.86167951102844) translate(19.012563629245005 17.964977560775424)"/><use xlink:href="#f" transform="matrix(1,0,0,1,880.5487642838161,115.86167951102844) translate(65.36477851174955 17.964977560775424)"/><use xlink:href="#p" transform="matrix(1,0,0,1,880.5487642838161,115.86167951102844) translate(93.17610744125227 17.964977560775424)"/></g><path d="M602.5 463.95v33.84a12 12 0 0 0 12 12h300.4a12 12 0 0 0 12-12v-17.97M602.5 463.96v-.5" stroke="#666" fill="none"/><path d="M926.9 465.06l4.63 14.27h-9.27z" stroke="#666" fill="#666"/><defs><path fill="#00184e" d="M190 0L58-211 59 0H30v-248h39L202-35l-2-213h31V0h-41" id="q"/><path fill="#00184e" d="M-5 72V49h209v23H-5" id="r"/><path fill="#00184e" d="M101-251c82-7 93 87 43 132L82-64C71-53 59-42 53-27h129V0H18c2-99 128-94 128-182 0-28-16-43-45-43s-46 15-49 41l-32-3c6-41 34-60 81-64" id="s"/><g id="a"><use transform="matrix(0.050063688677604884,0,0,0.050063688677604884,0,0)" xlink:href="#q"/><use transform="matrix(0.050063688677604884,0,0,0.050063688677604884,12.966495367499665,0)" xlink:href="#r"/><use transform="matrix(0.050063688677604884,0,0,0.050063688677604884,22.97923310302064,0)" xlink:href="#s"/></g><path fill="#00184e" d="M126-127c33 6 58 20 58 59 0 88-139 92-164 29-3-8-5-16-6-25l32-3c6 27 21 44 54 44 32 0 52-15 52-46 0-38-36-46-79-43v-28c39 1 72-4 72-42 0-27-17-43-46-43-28 0-47 15-49 41l-32-3c6-42 35-63 81-64 48-1 79 21 79 65 0 36-21 52-52 59" id="t"/><g id="b"><use transform="matrix(0.050063688677604884,0,0,0.050063688677604884,0,0)" xlink:href="#q"/><use transform="matrix(0.050063688677604884,0,0,0.050063688677604884,12.966495367499665,0)" xlink:href="#r"/><use transform="matrix(0.050063688677604884,0,0,0.050063688677604884,22.97923310302064,0)" xlink:href="#t"/></g><path fill="#00184e" d="M27 0v-27h64v-190l-56 39v-29l58-41h29v221h61V0H27" id="u"/><g id="c"><use transform="matrix(0.050063688677604884,0,0,0.050063688677604884,0,0)" xlink:href="#q"/><use transform="matrix(0.050063688677604884,0,0,0.050063688677604884,12.966495367499665,0)" xlink:href="#r"/><use transform="matrix(0.050063688677604884,0,0,0.050063688677604884,22.97923310302064,0)" xlink:href="#u"/></g><path fill="#00184e" d="M631 20c-350 0-501-215-501-562 0-355 162-560 502-560 250 0 399 118 446 323l-192 14c-23-124-109-196-262-196-242 0-305 171-305 415 1 245 61 427 304 427 151 0 248-77 267-215l190 12C1039-107 883 20 631 20" id="v"/><path fill="#00184e" d="M648-963c-190 6-283 138-283 336V0H185v-1484h181c-2 197 6 404-9 587h3c62-120 159-205 339-205 242 0 351 135 350 381V0H868v-695c1-168-57-273-220-268" id="w"/><path fill="#00184e" d="M617-1102c355 0 481 238 477 599H322c5 222 84 388 301 388 144 0 244-59 284-166l158 45C1002-72 854 20 623 20c-342 0-490-220-490-568 0-346 151-554 484-554zm291 461c-18-192-90-328-289-328-194 0-287 128-295 328h584" id="x"/><path fill="#00184e" d="M914 0L548-499l-132 98V0H236v-1484h180v927l475-525h211L663-617 1125 0H914" id="y"/><path fill="#00184e" d="M-5 220v-96h1238v96H-5" id="z"/><path fill="#00184e" d="M698-1104c312 3 392 244 392 558 0 315-82 566-392 566-169 0-277-65-331-184h-5c8 188 2 394 4 589H185V-858c0-76-1-156-6-224h175c6 52 9 120 10 178h4c58-122 150-202 330-200zm-49 991c225 0 255-203 255-433 0-225-32-419-253-419-236 0-285 192-285 441 0 237 53 411 283 411" id="A"/><path fill="#00184e" d="M839-1102c70 0 148 7 206 17v167c-112-18-268-36-363 15-129 69-208 203-208 395V0H294c-10-367 32-789-52-1082h171c21 75 41 161 48 250h5c67-152 152-270 373-270" id="B"/><path fill="#00184e" d="M865-914c-3-187-2-380-2-570h180v1261c0 76 1 155 6 223H877c-8-49-9-116-10-174h-5C801-44 708 26 530 26c-135 0-234-46-297-139s-95-232-95-419c0-377 131-566 392-566 176 0 271 63 335 184zm-286-51c-222 0-255 197-255 427 0 229 31 425 253 425 237 0 286-195 286-441 0-238-52-411-284-411" id="C"/><path fill="#00184e" d="M873-819c-18-114-119-146-250-146-163 0-245 50-245 151 0 151 170 148 294 185 182 54 388 94 388 320 0 240-189 325-439 329-245 4-410-69-454-268l159-31c24 133 136 168 295 165 144-2 270-31 270-171 0-164-195-160-331-202-167-52-350-87-350-299 0-218 173-315 413-313 220 2 373 77 412 260" id="D"/><path fill="#00184e" d="M615-1102c343 0 484 203 482 560-1 347-147 562-488 562-336 0-475-219-479-562-4-349 156-560 485-560zm-8 989c240 0 301-180 301-429 0-245-55-427-290-427-236 0-299 181-299 427 0 243 61 429 288 429" id="E"/><path fill="#00184e" d="M891-1484c-201 251-362 514-362 954 0 441 161 704 362 955H701C500 176 342-90 342-532c0-440 159-704 359-952h190" id="F"/><path fill="#00184e" d="M528-1484c201 248 357 511 357 952 0 442-156 709-357 957H336C537 174 700-89 700-530c0-440-163-703-364-954h192" id="G"/><g id="d"><use transform="matrix(0.008800257775360233,0,0,0.008800257775360233,0,0)" xlink:href="#v"/><use transform="matrix(0.008800257775360233,0,0,0.008800257775360233,10.815516805917726,0)" xlink:href="#w"/><use transform="matrix(0.008800257775360233,0,0,0.008800257775360233,21.631033611835452,0)" xlink:href="#x"/><use transform="matrix(0.008800257775360233,0,0,0.008800257775360233,32.44655041775318,0)" xlink:href="#v"/><use transform="matrix(0.008800257775360233,0,0,0.008800257775360233,43.262067223670904,0)" xlink:href="#y"/><use transform="matrix(0.008800257775360233,0,0,0.008800257775360233,54.07758402958863,0)" xlink:href="#z"/><use transform="matrix(0.008800257775360233,0,0,0.008800257775360233,64.89310083550636,0)" xlink:href="#A"/><use transform="matrix(0.008800257775360233,0,0,0.008800257775360233,75.70861764142408,0)" xlink:href="#B"/><use transform="matrix(0.008800257775360233,0,0,0.008800257775360233,86.52413444734181,0)" xlink:href="#x"/><use transform="matrix(0.008800257775360233,0,0,0.008800257775360233,97.33965125325953,0)" xlink:href="#C"/><use transform="matrix(0.008800257775360233,0,0,0.008800257775360233,108.15516805917726,0)" xlink:href="#x"/><use transform="matrix(0.008800257775360233,0,0,0.008800257775360233,118.97068486509498,0)" xlink:href="#v"/><use transform="matrix(0.008800257775360233,0,0,0.008800257775360233,129.78620167101272,0)" xlink:href="#x"/><use transform="matrix(0.008800257775360233,0,0,0.008800257775360233,140.60171847693044,0)" xlink:href="#D"/><use transform="matrix(0.008800257775360233,0,0,0.008800257775360233,151.41723528284817,0)" xlink:href="#D"/><use transform="matrix(0.008800257775360233,0,0,0.008800257775360233,162.2327520887659,0)" xlink:href="#E"/><use transform="matrix(0.008800257775360233,0,0,0.008800257775360233,173.04826889468362,0)" xlink:href="#B"/><use transform="matrix(0.008800257775360233,0,0,0.008800257775360233,183.86378570060134,0)" xlink:href="#F"/><use transform="matrix(0.008800257775360233,0,0,0.008800257775360233,194.67930250651906,0)" xlink:href="#G"/></g><g id="e"><use transform="matrix(0.007543078093165914,0,0,0.007543078093165914,0,0)" xlink:href="#A"/><use transform="matrix(0.007543078093165914,0,0,0.007543078093165914,9.270442976500908,0)" xlink:href="#B"/><use transform="matrix(0.007543078093165914,0,0,0.007543078093165914,18.540885953001816,0)" xlink:href="#x"/><use transform="matrix(0.007543078093165914,0,0,0.007543078093165914,27.81132892950272,0)" xlink:href="#C"/></g><path fill="#00184e" d="M496 0v-299h235V0H496zm0-783v-299h235v299H496" id="H"/><path fill="#00184e" d="M116-856v-148h995v148H116zm0 512v-148h995v148H116" id="I"/><g id="f"><use transform="matrix(0.007543078093165914,0,0,0.007543078093165914,0,0)" xlink:href="#H"/><use transform="matrix(0.007543078093165914,0,0,0.007543078093165914,9.270442976500908,0)" xlink:href="#I"/></g><path fill="#00184e" d="M912-211c-10-84-18-177-18-274v-864h172V0H836L316-1130c7 79 16 167 16 254V0H162v-1349h222" id="J"/><path fill="#00184e" d="M706-1102c241 0 344 136 343 381V0H868v-695c1-168-57-273-220-268-190 6-283 138-283 336V0H185c-3-360 6-732-6-1082h170c4 54 7 126 8 185h3c63-121 164-204 346-205" id="K"/><g id="g"><use transform="matrix(0.007543078093165914,0,0,0.007543078093165914,0,0)" xlink:href="#J"/><use transform="matrix(0.007543078093165914,0,0,0.007543078093165914,9.270442976500908,0)" xlink:href="#E"/><use transform="matrix(0.007543078093165914,0,0,0.007543078093165914,18.540885953001816,0)" xlink:href="#K"/><use transform="matrix(0.007543078093165914,0,0,0.007543078093165914,27.81132892950272,0)" xlink:href="#x"/></g><path fill="#00184e" d="M650-1214c-281 0-336 244-336 533 0 295 60 546 347 546 188 0 263-142 322-282l159 65C1058-155 935 20 659 20c-401 0-546-295-546-701 0-407 135-689 536-689 264 0 391 146 466 335l-168 65c-47-129-127-244-297-244" id="L"/><g id="h"><use transform="matrix(0.008800257775360233,0,0,0.008800257775360233,0,0)" xlink:href="#L"/><use transform="matrix(0.008800257775360233,0,0,0.008800257775360233,10.815516805917726,0)" xlink:href="#w"/><use transform="matrix(0.008800257775360233,0,0,0.008800257775360233,21.631033611835452,0)" xlink:href="#x"/><use transform="matrix(0.008800257775360233,0,0,0.008800257775360233,32.44655041775318,0)" xlink:href="#v"/><use transform="matrix(0.008800257775360233,0,0,0.008800257775360233,43.262067223670904,0)" xlink:href="#y"/><use transform="matrix(0.008800257775360233,0,0,0.008800257775360233,54.07758402958863,0)" xlink:href="#F"/><use transform="matrix(0.008800257775360233,0,0,0.008800257775360233,64.89310083550636,0)" xlink:href="#G"/></g><path fill="#00184e" d="M682 16c-209 0-323-80-324-285v-671H190v-142h170l58-282h120v282h432v142H538v652c2 114 60 155 182 155 106 0 209-16 297-34v137C921-4 806 16 682 16" id="M"/><path fill="#00184e" d="M1000-272c3 95 12 159 101 161 21 0 41-3 59-7V-6c-44 10-86 16-139 16-141 2-191-84-197-217h-6C748-76 648 20 446 20c-207 0-318-120-318-322 0-266 194-348 454-354l236-4c12-191-40-305-222-305-140 0-220 47-232 172l-188-17c33-204 181-292 423-292 255 0 401 118 401 364v466zm-683-27c0 109 63 184 175 182 166-3 259-96 306-217 24-65 20-120 20-200-232 7-501-28-501 235" id="N"/><path fill="#00184e" d="M365-904c58-129 161-200 334-200 130 0 228 46 293 138s98 233 98 420c0 189-34 331-102 425S824 20 698 20c-170 0-275-64-336-184 0 55-3 116-9 164H179c5-68 6-147 6-223v-1261h180c-2 193 4 394-4 580h4zm283 791c221 0 256-197 256-427 0-229-34-425-254-425-236 0-285 195-285 441 0 237 53 411 283 411" id="O"/><path fill="#00184e" d="M745-142h380V0H143v-142h422v-798H246v-142h499v940zM545-1292v-192h200v192H545" id="P"/><path fill="#00184e" d="M736-142h380V0H134v-142h422v-1200H267v-142h469v1342" id="Q"/><path fill="#00184e" d="M147 0v-137l681-806H187v-139h844v137L349-139h719V0H147" id="R"/><g id="i"><use transform="matrix(0.008800257775360233,0,0,0.008800257775360233,0,0)" xlink:href="#D"/><use transform="matrix(0.008800257775360233,0,0,0.008800257775360233,10.815516805917726,0)" xlink:href="#M"/><use transform="matrix(0.008800257775360233,0,0,0.008800257775360233,21.631033611835452,0)" xlink:href="#N"/><use transform="matrix(0.008800257775360233,0,0,0.008800257775360233,32.44655041775318,0)" xlink:href="#O"/><use transform="matrix(0.008800257775360233,0,0,0.008800257775360233,43.262067223670904,0)" xlink:href="#P"/><use transform="matrix(0.008800257775360233,0,0,0.008800257775360233,54.07758402958863,0)" xlink:href="#Q"/><use transform="matrix(0.008800257775360233,0,0,0.008800257775360233,64.89310083550636,0)" xlink:href="#P"/><use transform="matrix(0.008800257775360233,0,0,0.008800257775360233,75.70861764142408,0)" xlink:href="#R"/><use transform="matrix(0.008800257775360233,0,0,0.008800257775360233,86.52413444734181,0)" xlink:href="#x"/><use transform="matrix(0.008800257775360233,0,0,0.008800257775360233,97.33965125325953,0)" xlink:href="#F"/><use transform="matrix(0.008800257775360233,0,0,0.008800257775360233,108.15516805917726,0)" xlink:href="#G"/></g><path fill="#00184e" d="M528 20c-247 0-343-132-343-381v-721h180v686c-4 177 45 284 224 277 194-8 279-136 279-336v-627h181c3 360-6 732 6 1082H885c-4-54-7-126-8-185h-3C809-64 714 20 528 20" id="S"/><g id="j"><use transform="matrix(0.007543078093165914,0,0,0.007543078093165914,0,0)" xlink:href="#D"/><use transform="matrix(0.007543078093165914,0,0,0.007543078093165914,9.270442976500908,0)" xlink:href="#S"/><use transform="matrix(0.007543078093165914,0,0,0.007543078093165914,18.540885953001816,0)" xlink:href="#v"/><use transform="matrix(0.007543078093165914,0,0,0.007543078093165914,27.81132892950272,0)" xlink:href="#v"/></g><path fill="#00184e" d="M932 0L611-444 288 0H94l415-556-397-526h199l300 421 298-421h201L713-558 1133 0H932" id="T"/><g id="k"><use transform="matrix(0.007543078093165914,0,0,0.007543078093165914,0,0)" xlink:href="#K"/><use transform="matrix(0.007543078093165914,0,0,0.007543078093165914,9.270442976500908,0)" xlink:href="#x"/><use transform="matrix(0.007543078093165914,0,0,0.007543078093165914,18.540885953001816,0)" xlink:href="#T"/><use transform="matrix(0.007543078093165914,0,0,0.007543078093165914,27.81132892950272,0)" xlink:href="#M"/><use transform="matrix(0.007543078093165914,0,0,0.007543078093165914,37.08177190600363,0)" xlink:href="#z"/><use transform="matrix(0.007543078093165914,0,0,0.007543078093165914,46.35221488250454,0)" xlink:href="#D"/><use transform="matrix(0.007543078093165914,0,0,0.007543078093165914,55.62265785900545,0)" xlink:href="#S"/><use transform="matrix(0.007543078093165914,0,0,0.007543078093165914,64.89310083550636,0)" xlink:href="#v"/><use transform="matrix(0.007543078093165914,0,0,0.007543078093165914,74.16354381200726,0)" xlink:href="#v"/></g><use transform="matrix(0.007543078093165914,0,0,0.007543078093165914,0,0)" xlink:href="#I" id="m"/><path fill="#00184e" d="M611-1370c266 0 451 106 451 368 0 147-77 243-154 327-132 144-316 255-451 395-42 44-75 87-96 134h723V0H144v-117c124-264 387-411 582-603 73-72 151-147 151-271 0-161-104-231-266-231-163 0-249 90-268 238l-184-17c35-233 185-369 452-369" id="U"/><g id="n"><use transform="matrix(0.007543078093165914,0,0,0.007543078093165914,0,0)" xlink:href="#J"/><use transform="matrix(0.007543078093165914,0,0,0.007543078093165914,9.270442976500908,0)" xlink:href="#z"/><use transform="matrix(0.007543078093165914,0,0,0.007543078093165914,18.540885953001816,0)" xlink:href="#U"/></g><path fill="#00184e" d="M839-1335c-182-6-269 67-259 253h491v142H580V0H400v-940H138v-142h262c-15-293 132-408 418-402 94 2 200 7 281 21v145c-75-10-177-14-260-17" id="V"/><path fill="#00184e" d="M168 279c222 39 310-114 368-290L66-1082h192c120 299 249 590 362 896 115-301 235-597 351-896h190L705 0c-65 164-130 320-275 396-67 36-177 35-262 18V279" id="W"/><path fill="#00184e" d="M1060-1016c0 191-128 285-295 323v4c154 18 262 91 313 209 14 35 21 72 21 110 0 277-194 390-478 390-292 0-457-129-493-382l186-17c24 161 121 250 307 250 172 1 298-80 291-247-8-208-220-239-446-233v-156c217 9 409-34 409-232 0-152-102-225-264-225-159 0-264 88-278 233l-181-14c33-239 196-367 461-367 264 0 447 102 447 354" id="X"/><g id="o"><use transform="matrix(0.008800257775360233,0,0,0.008800257775360233,0,0)" xlink:href="#J"/><use transform="matrix(0.008800257775360233,0,0,0.008800257775360233,10.815516805917726,0)" xlink:href="#E"/><use transform="matrix(0.008800257775360233,0,0,0.008800257775360233,21.631033611835452,0)" xlink:href="#M"/><use transform="matrix(0.008800257775360233,0,0,0.008800257775360233,32.44655041775318,0)" xlink:href="#P"/><use transform="matrix(0.008800257775360233,0,0,0.008800257775360233,43.262067223670904,0)" xlink:href="#V"/><use transform="matrix(0.008800257775360233,0,0,0.008800257775360233,54.07758402958863,0)" xlink:href="#W"/><use transform="matrix(0.008800257775360233,0,0,0.008800257775360233,64.89310083550636,0)" xlink:href="#F"/><use transform="matrix(0.008800257775360233,0,0,0.008800257775360233,75.70861764142408,0)" xlink:href="#J"/><use transform="matrix(0.008800257775360233,0,0,0.008800257775360233,86.52413444734181,0)" xlink:href="#z"/><use transform="matrix(0.008800257775360233,0,0,0.008800257775360233,97.33965125325953,0)" xlink:href="#X"/><use transform="matrix(0.008800257775360233,0,0,0.008800257775360233,108.15516805917726,0)" xlink:href="#G"/></g><g id="p"><use transform="matrix(0.007543078093165914,0,0,0.007543078093165914,0,0)" xlink:href="#J"/><use transform="matrix(0.007543078093165914,0,0,0.007543078093165914,9.270442976500908,0)" xlink:href="#z"/><use transform="matrix(0.007543078093165914,0,0,0.007543078093165914,18.540885953001816,0)" xlink:href="#X"/></g></defs></g></svg>