<svg xmlns="http://www.w3.org/2000/svg" xmlns:xlink="http://www.w3.org/1999/xlink" xmlns:lucid="lucid" width="1347" height="1053"><g transform="translate(0 -107)" lucid:page-tab-id="0_0"><path d="M0 0h2203.5v1786.14H0z" fill="#fff"/><path d="M46.34 193.38a8 8 0 0 1 8-8h144a8 8 0 0 1 8 8v76.8a8 8 0 0 1-8 8h-144a8 8 0 0 1-8-8z" stroke="#000" stroke-opacity="0" stroke-width="2" fill="#cfe4ff"/><use xlink:href="#a" transform="matrix(1,0,0,1,58.344671804411405,197.3786872176455) translate(51.50401458072919 37.532592339150206)"/><path d="M46.34 355.58a8 8 0 0 1 8-8h144a8 8 0 0 1 8 8v76.8a8 8 0 0 1-8 8h-144a8 8 0 0 1-8-8z" stroke="#000" stroke-opacity="0" stroke-width="2" fill="#cfe4ff"/><use xlink:href="#b" transform="matrix(1,0,0,1,58.344671804411405,359.5850385330853) translate(51.50401458072919 37.532592339150206)"/><path d="M46.34 517.8a8 8 0 0 1 8-8h144a8 8 0 0 1 8 8v76.78a8 8 0 0 1-8 8h-144a8 8 0 0 1-8-8z" stroke="#000" stroke-opacity="0" stroke-width="2" fill="#cfe4ff"/><use xlink:href="#c" transform="matrix(1,0,0,1,58.344671804411405,521.7913898485253) translate(51.50401458072919 37.532592339150206)"/><path d="M254.9 147.03a8 8 0 0 1 8-8h331.58a8 8 0 0 1 8 8v44a8 8 0 0 1-8 8H262.9a8 8 0 0 1-8-8z" fill="none"/><use xlink:href="#d" transform="matrix(1,0,0,1,254.8956949242625,139.03401541323413) translate(118.37734214099456 37.33530341436723)"/><path d="M276.5 231.22v-33.84a12 12 0 0 1 12-12H568a12 12 0 0 1 12 12v17.96M276.5 231.2v.52" stroke="#666" fill="none"/><path d="M580 230.1l-4.63-14.26h9.26z" stroke="#666" fill="#666"/><path d="M417.1 189.34a8 8 0 0 1 8-8h123.04a8 8 0 0 1 8 8v39.96a8 8 0 0 1-8 8H425.1a8 8 0 0 1-8-8z" fill="none"/><use xlink:href="#e" transform="matrix(1,0,0,1,417.10204623970236,181.3397691328698) translate(12.977 23.361006972702963)"/><use xlink:href="#f" transform="matrix(1,0,0,1,417.10204623970236,181.3397691328698) translate(59.329214882504544 23.361006972702963)"/><use xlink:href="#g" transform="matrix(1,0,0,1,417.10204623970236,181.3397691328698) translate(77.87010083550636 23.361006972702963)"/><use xlink:href="#h" transform="matrix(1,0,0,1,417.10204623970236,181.3397691328698) translate(12.977 44.56894814884788)"/><use xlink:href="#f" transform="matrix(1,0,0,1,417.10204623970236,181.3397691328698) translate(59.329214882504544 44.56894814884788)"/><use xlink:href="#i" transform="matrix(1,0,0,1,417.10204623970236,181.3397691328698) translate(77.87010083550636 44.56894814884788)"/><path d="M787.86 147.03a8 8 0 0 1 8-8h169.38a8 8 0 0 1 8 8v44a8 8 0 0 1-8 8H795.86a8 8 0 0 1-8-8z" fill="none"/><use xlink:href="#j" transform="matrix(1,0,0,1,787.8594206749935,139.03401541323413) translate(25.016751505660007 37.33530341436723)"/><path d="M301.7 377.55h-.94V324.9h.95zm0-76.8h-.94v-68.53h.95z" stroke="#666" stroke-width=".05" fill="#666"/><path d="M301.7 232.24h-.94v-.52h.95z" stroke="#666" stroke-width=".05" fill="#666"/><path d="M301.24 392.3l-4.63-14.25h9.28z" fill="#666"/><path d="M301.24 393.85l-5.3-16.28h10.6zm-3.98-15.33l3.98 12.25 3.98-12.25z" stroke="#666" stroke-width=".05" fill="#666"/><use xlink:href="#k" transform="matrix(1,0,0,1,214.71623228133217,300.7642356603589) translate(0.0049999999999919 18.7124395069892)"/><path d="M418.07 393.48h-.95v-2h.95zm0-5.98h-.95v-3.98h.95zm0-7.96h-.95v-4h.95zm0-7.97h-.95v-3.98h.95zm0-7.96h-.95v-3.98h.95zm0-7.96h-.95v-4h.95zm0-7.97h-.95v-3.98h.95zm0-7.96h-.95v-3.98h.95zm0-7.96h-.95v-3.98h.95zm0-31.87h-.95v-3.98h.95zm0-7.96h-.95v-3.98h.95zm0-7.96h-.95v-3.98h.95zm0-7.97h-.95V272h.95zm0-7.96h-.95v-3.98h.95zm0-7.96h-.95v-3.98h.95zm0-7.97h-.95v-2h.95zM418.07 393.98h-.95v-.5h.95z" stroke="#666" stroke-width=".05" fill="#666"/><path d="M422.23 249.58h-9.27l4.64-14.26z" fill="#666"/><path d="M422.9 250.06h-10.6l5.3-16.28zm-9.28-.95h7.96l-3.98-12.25z" stroke="#666" stroke-width=".05" fill="#666"/><use xlink:href="#l" transform="matrix(1,0,0,1,401.3738628877813,301.77680266434186) translate(0.004999999999997229 18.7124395069892)"/><path d="M718.34 231.22v-33.84a12 12 0 0 1 12-12h278.36a12 12 0 0 1 12 12v19.94M718.34 231.2v.52" stroke="#666" fill="none"/><path d="M1020.7 232.08l-4.64-14.27h9.27z" stroke="#666" fill="#666"/><path d="M974.05 540.9h-.95V325.57h.95zm0-239.47h-.95V234.2h.95zM974.05 234.2h-.95v-.5h.95z" stroke="#666" stroke-width=".05" fill="#666"/><path d="M973.58 555.67l-4.64-14.26h9.27z" fill="#666"/><path d="M973.58 557.2l-5.3-16.27h10.58zm-4-15.32l4 12.26 3.98-12.26z" stroke="#666" stroke-width=".05" fill="#666"/><use xlink:href="#m" transform="matrix(1,0,0,1,914.0896146380511,301.43178515466514) translate(0.004999999999999005 18.7124395069892)"/><path d="M973.24 554.62a8 8 0 0 1 8-8h123.03a8 8 0 0 1 8 8v39.96a8 8 0 0 1-8 8H981.24a8 8 0 0 1-8-8z" fill="none"/><use xlink:href="#h" transform="matrix(1,0,0,1,973.2381078926389,546.6190539463196) translate(12.977 33.964977560775424)"/><use xlink:href="#f" transform="matrix(1,0,0,1,973.2381078926389,546.6190539463196) translate(59.329214882504544 33.964977560775424)"/><use xlink:href="#n" transform="matrix(1,0,0,1,973.2381078926389,546.6190539463196) translate(77.87010083550636 33.964977560775424)"/><path d="M765.06 540.9h-.95V328.17h.96zm0-238.07h-.95V234.2h.96zM765.06 234.2h-.95v-.5h.96z" stroke="#666" stroke-width=".05" fill="#666"/><path d="M764.6 555.67l-4.65-14.26h9.27z" fill="#666"/><path d="M764.6 557.2l-5.3-16.27h10.58zm-4-15.32l4 12.26 3.97-12.26z" stroke="#666" stroke-width=".05" fill="#666"/><use xlink:href="#o" transform="matrix(1,0,0,1,708.1154565407821,302.82657401009845) translate(0.004999999999999005 18.126342339150206)"/><path d="M858.73 556.8h-.95v-2.02h.95zm0-6.05h-.95v-4.04h.95zm0-8.07h-.95v-4.03h.95zm0-8.06h-.95v-4.04h.95zm0-8.07h-.95v-4.03h.95zm0-8.06h-.95v-4.05h.95zm0-8.08h-.95v-4.03h.95zm0-8.06h-.95v-4.04h.95zm0-8.07h-.95v-4.04h.95zm0-8.07h-.95v-4.04h.95zm0-8.07h-.95v-4.03h.95zm0-8.06h-.95v-4.04h.95zm0-8.07h-.95V458h.95zm0-8.06h-.95v-4.04h.95zm0-8.07h-.95v-4.03h.95zm0-8.06h-.95v-4.03h.95zm0-8.07h-.95v-4.03h.95zm0-8.06h-.95v-4.02h.95zm0-8.06h-.95v-4.03h.95zm0-8.06h-.95v-4.03h.95zm0-10.08v2h-.95v-4.02h.95zm0-6.06h-.95v-4.04h.95zm0-8.08h-.95v-4.04h.95zm0-8.08h-.95v-4.04h.95zm0-8.08h-.95v-4.04h.95zm0-8.08h-.95v-4.04h.95zm0-8.08h-.95V345h.95zm0-8.07h-.95v-4.04h.95zm0-8.08h-.95v-4.05h.95zm0-32.33h-.95v-4.04h.95zm0-8.07h-.95v-4.04h.95zm0-8.08h-.95v-4.04h.95zm0-8.08h-.95v-4.04h.95zm0-8.08h-.95v-4.04h.95zm0-8.08h-.95v-4.04h.95zm0-8.08h-.95v-2.02h.95z" stroke="#666" stroke-width=".05" fill="#666"/><path d="M858.73 557.3h-.95v-.52h.95z" stroke="#666" stroke-width=".05" fill="#666"/><path d="M862.9 249.58h-9.28l4.63-14.26z" fill="#666"/><path d="M863.54 250.06h-10.58l5.3-16.28zm-9.27-.95h7.96l-3.98-12.25z" stroke="#666" stroke-width=".05" fill="#666"/><use xlink:href="#b" transform="matrix(1,0,0,1,841.7559786165161,303.49349550867123) translate(0.004999999999997229 18.126342339150206)"/><path d="M162.2 703.17a8 8 0 0 1 8-8h144a8 8 0 0 1 8 8v76.8a8 8 0 0 1-8 8h-144a8 8 0 0 1-8-8z" stroke="#000" stroke-opacity="0" stroke-width="2" fill="#cfe4ff"/><use xlink:href="#a" transform="matrix(1,0,0,1,174.20635131543975,707.1700770661705) translate(51.50401458072919 37.532592339150206)"/><path d="M162.2 865.38a8 8 0 0 1 8-8h144a8 8 0 0 1 8 8v76.78a8 8 0 0 1-8 8h-144a8 8 0 0 1-8-8z" stroke="#000" stroke-opacity="0" stroke-width="2" fill="#cfe4ff"/><use xlink:href="#b" transform="matrix(1,0,0,1,174.20635131543975,869.3764283816104) translate(51.50401458072919 37.532592339150206)"/><path d="M162.2 1027.58a8 8 0 0 1 8-8h144a8 8 0 0 1 8 8v76.8a8 8 0 0 1-8 8h-144a8 8 0 0 1-8-8z" stroke="#000" stroke-opacity="0" stroke-width="2" fill="#cfe4ff"/><use xlink:href="#c" transform="matrix(1,0,0,1,174.20635131543975,1031.58277969705) translate(51.50401458072919 37.532592339150206)"/><path d="M323.7 743.5h559.4M323.75 743.5h-1.54" stroke="#666" stroke-width="3" fill="none"/><path d="M898.87 743.5l-14.27 4.63v-9.27z" stroke="#666" stroke-width="3" fill="#666"/><path d="M323.7 903.77l559.4-.05" stroke="#666" stroke-width="3" fill="none"/><path d="M323.75 905.25h-1.54v-2.95h1.55z" stroke="#666" stroke-width=".05" fill="#666"/><path d="M898.87 903.72l-14.27 4.64v-9.27z" stroke="#666" stroke-width="3" fill="#666"/><path d="M323.7 1067.1h559.4" stroke="#666" stroke-width="3" fill="none"/><path d="M323.75 1068.56h-1.54v-2.95h1.55z" stroke="#666" stroke-width=".05" fill="#666"/><path d="M898.87 1067.1l-14.27 4.62v-9.27z" stroke="#666" stroke-width="3" fill="#666"/><path d="M161.2 741.56h-33.34a12 12 0 0 0-12 12v300.42a12 12 0 0 0 12 12h15.84" stroke="#fc9432" stroke-width="2" fill="none"/><path d="M162.2 742.54h-1.02v-1.95h1.03z" stroke="#fc9432" stroke-width=".05" fill="#fc9432"/><path d="M158.97 1065.98l-14.27 4.63v-9.26z" stroke="#fc9432" stroke-width="2" fill="#fc9432"/><path d="M117.45 505.35l-.68-.4-.8-.57-.84-.7-.86-.84-.9-1.04-.95-1.3-.98-1.6-1.03-2.04-1.04-2.6-1.03-3.25-.93-4.06-.7-4.87-.34-5.48.1-5.64.53-5.24.8-4.5.55-1.98m26.9-14.42l.67.4.8.57.84.68.86.85.9 1.04.94 1.3 1 1.6 1.02 2.04 1.05 2.6 1.03 3.25.93 4.07.7 4.88.33 5.48-.1 5.62-.53 5.24-.83 4.5-.53 2" stroke="#fc9432" stroke-width="2" fill="none"/><path d="M118.77 504.9l-.85 1.77-.92-.45.84-1.75z" stroke="#fc9432" stroke-width=".05" fill="#fc9432"/><path d="M116.54 447.06l-4.12 14.42-7.7-5.17z" stroke="#fc9432" stroke-width="2" fill="#fc9432"/><path d="M135.7 443.94l-.86 1.76-.92-.45.85-1.75z" stroke="#fc9432" stroke-width=".05" fill="#fc9432"/><path d="M136.15 503.1l4.12-14.42 7.7 5.18z" stroke="#fc9432" stroke-width="2" fill="#fc9432"/><path d="M233.3 1015.14l-.67-.4-.8-.57-.84-.7-.87-.84-.9-1.04-.94-1.3-1-1.62-1.03-2.03-1.05-2.58-1.03-3.27-.94-4.06-.7-4.88-.34-5.48.1-5.63.53-5.24.83-4.5.53-1.97m26.9-14.42l.68.4.8.58.84.7.86.84.9 1.04.95 1.3 1 1.6 1 2.04 1.06 2.58 1.02 3.27.93 4.06.7 4.9.34 5.47-.12 5.62-.52 5.23-.82 4.5-.53 2" stroke="#fc9432" stroke-width="2" fill="none"/><path d="M234.63 1014.7l-.85 1.76-.92-.45.85-1.74z" stroke="#fc9432" stroke-width=".05" fill="#fc9432"/><path d="M232.4 956.85l-4.12 14.42-7.7-5.17z" stroke="#fc9432" stroke-width="2" fill="#fc9432"/><path d="M251.56 953.73l-.85 1.76-.92-.46.85-1.75z" stroke="#fc9432" stroke-width=".05" fill="#fc9432"/><path d="M252 1012.9l4.13-14.43 7.7 5.18z" stroke="#fc9432" stroke-width="2" fill="#fc9432"/><path d="M393.45 903.22v-33.84a12 12 0 0 1 12-12h348.4a12 12 0 0 1 12 12v17.97M393.45 903.2v.52" stroke="#666" fill="none"/><path d="M765.85 902.1l-4.64-14.25h9.28z" stroke="#666" fill="#666"/><path d="M486.62 819.03a8 8 0 0 1 8-8H664a8 8 0 0 1 8 8v44a8 8 0 0 1-8 8H494.62a8 8 0 0 1-8-8z" fill="none"/><use xlink:href="#j" transform="matrix(1,0,0,1,486.6190539463193,811.0317565771988) translate(25.016751505660007 37.33530341436723)"/><path d="M440.75 1049.54h-.95V996.9h.95zm0-76.78h-.95v-68.54h.95z" stroke="#666" stroke-width=".05" fill="#666"/><path d="M440.75 904.23h-.95v-.5h.95z" stroke="#666" stroke-width=".05" fill="#666"/><path d="M440.27 1064.3l-4.63-14.26h9.27z" fill="#666"/><path d="M440.27 1065.85l-5.28-16.28h10.56zm-3.98-15.33l3.97 12.25 4-12.25z" stroke="#666" stroke-width=".05" fill="#666"/><use xlink:href="#p" transform="matrix(1,0,0,1,369.9735229034427,972.7619768243236) translate(0.0049999999999919 18.7124395069892)"/><path d="M556.6 1066.6h-.94v-2.04h.95zm0-6.1h-.94v-4.06h.95zm0-8.12h-.94v-4.06h.95zm0-8.12h-.94v-4.06h.95zm0-8.12h-.94v-4.06h.95zm0-8.12h-.94v-4.06h.95zm0-8.12h-.94v-4.05h.95zm0-8.1h-.94v-4.07h.95zm0-8.13h-.94v-4.06h.95zm0-32.55h-.94v-4.08h.95zm0-8.16h-.94v-4.08h.95zm0-8.17h-.94v-4.1h.95zm0-8.17h-.94v-4.08h.95zm0-8.16h-.94v-4.08h.95zm0-8.16h-.94v-4.07h.95zm0-8.15h-.94v-2.04h.95z" stroke="#666" stroke-width=".05" fill="#666"/><path d="M556.6 1067.1h-.94v-.53h.95z" stroke="#666" stroke-width=".05" fill="#666"/><path d="M560.77 919.6h-9.27l4.64-14.26z" fill="#666"/><path d="M561.42 920.08h-10.57l5.3-16.28zm-9.26-.95h7.96l-3.98-12.25z" stroke="#666" stroke-width=".05" fill="#666"/><use xlink:href="#q" transform="matrix(1,0,0,1,539.9127864440599,973.3405965246233) translate(0.004999999999997229 18.7124395069892)"/><path d="M544.55 888.55a8 8 0 0 1 8-8H664a8 8 0 0 1 8 8v15.63a8 8 0 0 1-8 8H552.55a8 8 0 0 1-8-8z" fill="none"/><use xlink:href="#e" transform="matrix(1,0,0,1,544.5498937018335,880.548764283816) translate(12.977 16.568948148847884)"/><use xlink:href="#f" transform="matrix(1,0,0,1,544.5498937018335,880.548764283816) translate(59.329214882504544 16.568948148847884)"/><use xlink:href="#r" transform="matrix(1,0,0,1,544.5498937018335,880.548764283816) translate(77.87010083550636 16.568948148847884)"/><use xlink:href="#s" transform="matrix(1,0,0,1,544.5498937018335,880.548764283816) translate(12.977 37.7768893249928)"/><path d="M717.92 903.24h-.95v-82.8h.95zm0-108.15h-.95v-37.2h.95z" stroke="#666" stroke-width=".05" fill="#666"/><path d="M717.92 903.74h-.95v-.52h.95z" stroke="#666" stroke-width=".05" fill="#666"/><path d="M722.08 757.4h-9.27l4.65-14.27z" fill="#666"/><path d="M722.74 757.88h-10.58l5.3-16.28zm-9.27-.96h7.96l-3.98-12.25z" stroke="#666" stroke-width=".05" fill="#666"/><use xlink:href="#t" transform="matrix(1,0,0,1,672.0161794052225,795.0940223883733) translate(0.004999999999999005 18.126342339150206)"/><path d="M718.34 726.34a8 8 0 0 1 8-8h123.04a8 8 0 0 1 8 8v15.63a8 8 0 0 1-8 8H726.34a8 8 0 0 1-8-8z" fill="none"/><use xlink:href="#h" transform="matrix(1,0,0,1,718.3424129683763,718.3424129683759) translate(12.977 16.568948148847884)"/><use xlink:href="#f" transform="matrix(1,0,0,1,718.3424129683763,718.3424129683759) translate(59.329214882504544 16.568948148847884)"/><use xlink:href="#u" transform="matrix(1,0,0,1,718.3424129683763,718.3424129683759) translate(77.87010083550636 16.568948148847884)"/><use xlink:href="#v" transform="matrix(1,0,0,1,718.3424129683763,718.3424129683759) translate(12.977 37.7768893249928)"/><path d="M926.9 703.17a8 8 0 0 1 8-8h144a8 8 0 0 1 8 8v76.8a8 8 0 0 1-8 8h-144a8 8 0 0 1-8-8z" stroke="#000" stroke-opacity="0" stroke-width="2" fill="#cfe4ff"/><use xlink:href="#a" transform="matrix(1,0,0,1,938.8934360882275,707.1700770661705) translate(51.50401458072919 37.532592339150206)"/><path d="M926.9 865.38a8 8 0 0 1 8-8h144a8 8 0 0 1 8 8v76.78a8 8 0 0 1-8 8h-144a8 8 0 0 1-8-8z" stroke="#000" stroke-opacity="0" stroke-width="2" fill="#cfe4ff"/><use xlink:href="#b" transform="matrix(1,0,0,1,938.8934360882275,869.3764283816104) translate(51.50401458072919 37.532592339150206)"/><path d="M926.9 1027.58a8 8 0 0 1 8-8h144a8 8 0 0 1 8 8v76.8a8 8 0 0 1-8 8h-144a8 8 0 0 1-8-8z" stroke="#000" stroke-opacity="0" stroke-width="2" fill="#cfe4ff"/><use xlink:href="#c" transform="matrix(1,0,0,1,938.8934360882275,1031.58277969705) translate(51.50401458072919 37.532592339150206)"/><path d="M1006.9 856.38v-49.92" stroke="#fc9432" stroke-width="2" fill="none"/><path d="M1007.87 857.38h-1.95v-1.03h1.95z" stroke="#fc9432" stroke-width=".05" fill="#fc9432"/><path d="M1006.9 791.2l4.63 14.26h-9.27z" stroke="#fc9432" stroke-width="2" fill="#fc9432"/><path d="M1006.9 1018.58v-49.9" stroke="#fc9432" stroke-width="2" fill="none"/><path d="M1007.87 1019.58h-1.95v-1.02h1.95z" stroke="#fc9432" stroke-width=".05" fill="#fc9432"/><path d="M1006.9 953.4l4.63 14.27h-9.27z" stroke="#fc9432" stroke-width="2" fill="#fc9432"/><path d="M1087.9 741.7l.8.13.92.2.93.22.95.28.96.33.98.38 1 .45 1.04.5 1.07.58 1.1.66 1.16.76 1.2.86 1.26 1 1.3 1.1 1.4 1.3 1.45 1.48 1.56 1.7 1.64 1.97 1.75 2.3 1.87 2.67 2 3.12 2.13 3.66 2.3 4.32 2.42 5.12 2.57 6.07 2.7 7.18 2.8 8.5 2.8 9.93 2.76 11.52 2.56 13.13 2.2 14.62 1.75 15.86 1.13 16.73.43 17.1v1.74l-.37 17.64-1.16 18.22-1.9 17.98-2.48 16.93-2.9 15.25-3.1 13.23-3.1 11.2-3.03 9.28-2.84 7.67-2.66 6.3-2.43 5.18-2.23 4.3-2.05 3.55-1.9 2.98-1.73 2.5-1.62 2.12-1.5 1.8-1.38 1.55-1.26 1.3" stroke="#fc9432" stroke-width="2" stroke-linejoin="round" fill="none"/><path d="M1088.03 740.72l-.24 1.94-.9-.1v-1.98z" stroke="#fc9432" stroke-width=".05" fill="#fc9432"/><path d="M1089.8 1064.57l10.83-10.38 4.04 8.33z" stroke="#fc9432" stroke-width="2" fill="#fc9432"/><path d="M207.84 231.72h837.47" stroke="#666" stroke-width="3" fill="none"/><path d="M207.88 233.2h-1.53v-2.95h1.53z" stroke="#666" stroke-width=".05" fill="#666"/><path d="M1061.07 231.72l-14.26 4.64v-9.27z" stroke="#666" stroke-width="3" fill="#666"/><path d="M207.84 393.93h837.47" stroke="#666" stroke-width="3" fill="none"/><path d="M207.88 395.4h-1.53v-2.94h1.53z" stroke="#666" stroke-width=".05" fill="#666"/><path d="M1061.07 393.93l-14.26 4.63v-9.27z" stroke="#666" stroke-width="3" fill="#666"/><path d="M207.84 556.14h833.47a.07.07 0 0 0 .08-.07.07.07 0 0 1 .07-.07h2.93" stroke="#666" stroke-width="3" fill="none"/><path d="M207.88 557.6h-1.53v-2.94h1.53z" stroke="#666" stroke-width=".05" fill="#666"/><path d="M1060.15 556l-14.27 4.64v-9.27z" stroke="#666" stroke-width="3" fill="#666"/><path d="M6.34 170.2a8 8 0 0 1 8-8h224a8 8 0 0 1 8 8v7.18a8 8 0 0 1-8 8h-224a8 8 0 0 1-8-8z" fill="none"/><use xlink:href="#w" transform="matrix(1,0,0,1,6.344671804411405,162.20635131543983) translate(77.15263444749559 16.94364478696076)"/><use xlink:href="#x" transform="matrix(1,0,0,1,6.344671804411405,162.20635131543983) translate(121.73792519266541 16.94364478696076)"/><use xlink:href="#y" transform="matrix(1,0,0,1,6.344671804411405,162.20635131543983) translate(138.90261845355852 16.94364478696076)"/><path d="M1133.24 189.34a8 8 0 0 1 8-8h144a8 8 0 0 1 8 8v76.8a8 8 0 0 1-8 8h-144a8 8 0 0 1-8-8z" stroke="#000" stroke-opacity="0" stroke-width="2" fill="#cfe4ff"/><g><use xlink:href="#a" transform="matrix(1,0,0,1,1145.238107892639,193.3397691328699) translate(51.50401458072919 37.532592339150206)"/></g><path d="M1133.24 351.55a8 8 0 0 1 8-8h144a8 8 0 0 1 8 8v76.78a8 8 0 0 1-8 8h-144a8 8 0 0 1-8-8z" stroke="#000" stroke-opacity="0" stroke-width="2" fill="#cfe4ff"/><g><use xlink:href="#b" transform="matrix(1,0,0,1,1145.238107892639,355.54612044830986) translate(51.50401458072919 37.532592339150206)"/></g><path d="M1133.24 513.75a8 8 0 0 1 8-8h144a8 8 0 0 1 8 8v76.8a8 8 0 0 1-8 8h-144a8 8 0 0 1-8-8z" stroke="#000" stroke-opacity="0" stroke-width="2" fill="#cfe4ff"/><g><use xlink:href="#c" transform="matrix(1,0,0,1,1145.238107892639,517.7524717637493) translate(51.50401458072919 37.532592339150206)"/></g><path d="M1132.24 227.73h-33.35a12 12 0 0 0-12 12v300.42a12 12 0 0 0 12 12h15.84" stroke="#fc9432" stroke-width="2" fill="none"/><path d="M1133.24 228.7h-1.03v-1.94h1.04z" stroke="#fc9432" stroke-width=".05" fill="#fc9432"/><path d="M1130 552.15l-14.26 4.63v-9.27z" stroke="#fc9432" stroke-width="2" fill="#fc9432"/><path d="M1204.34 501.3l-.68-.4-.8-.56-.84-.7-.86-.84-.9-1.04-.94-1.3-1-1.6-1.02-2.04-1.05-2.58-1.03-3.27-.92-4.07-.7-4.87-.35-5.48.1-5.63.54-5.24.8-4.5.54-1.98m26.9-14.42l.67.4.82.57.83.7.86.84.9 1.03.96 1.3 1 1.6 1.02 2.04 1.05 2.58 1.03 3.27.92 4.06.7 4.88.34 5.48-.1 5.62-.53 5.24-.83 4.5-.53 2" stroke="#fc9432" stroke-width="2" fill="none"/><path d="M1205.66 500.88l-.85 1.75-.9-.45.84-1.75z" stroke="#fc9432" stroke-width=".05" fill="#fc9432"/><path d="M1203.43 443.02l-4.12 14.42-7.68-5.17z" stroke="#fc9432" stroke-width="2" fill="#fc9432"/><path d="M1222.6 439.9l-.86 1.76-.93-.45.86-1.74z" stroke="#fc9432" stroke-width=".05" fill="#fc9432"/><path d="M1223.04 499.07l4.12-14.43 7.7 5.18z" stroke="#fc9432" stroke-width="2" fill="#fc9432"/><defs><path fill="#00184e" d="M190 0L58-211 59 0H30v-248h39L202-35l-2-213h31V0h-41" id="z"/><path fill="#00184e" d="M-5 72V49h209v23H-5" id="A"/><path fill="#00184e" d="M101-251c82-7 93 87 43 132L82-64C71-53 59-42 53-27h129V0H18c2-99 128-94 128-182 0-28-16-43-45-43s-46 15-49 41l-32-3c6-41 34-60 81-64" id="B"/><g id="a"><use transform="matrix(0.050063688677604884,0,0,0.050063688677604884,0,0)" xlink:href="#z"/><use transform="matrix(0.050063688677604884,0,0,0.050063688677604884,12.966495367499665,0)" xlink:href="#A"/><use transform="matrix(0.050063688677604884,0,0,0.050063688677604884,22.97923310302064,0)" xlink:href="#B"/></g><path fill="#00184e" d="M27 0v-27h64v-190l-56 39v-29l58-41h29v221h61V0H27" id="C"/><g id="b"><use transform="matrix(0.050063688677604884,0,0,0.050063688677604884,0,0)" xlink:href="#z"/><use transform="matrix(0.050063688677604884,0,0,0.050063688677604884,12.966495367499665,0)" xlink:href="#A"/><use transform="matrix(0.050063688677604884,0,0,0.050063688677604884,22.97923310302064,0)" xlink:href="#C"/></g><path fill="#00184e" d="M126-127c33 6 58 20 58 59 0 88-139 92-164 29-3-8-5-16-6-25l32-3c6 27 21 44 54 44 32 0 52-15 52-46 0-38-36-46-79-43v-28c39 1 72-4 72-42 0-27-17-43-46-43-28 0-47 15-49 41l-32-3c6-42 35-63 81-64 48-1 79 21 79 65 0 36-21 52-52 59" id="D"/><g id="c"><use transform="matrix(0.050063688677604884,0,0,0.050063688677604884,0,0)" xlink:href="#z"/><use transform="matrix(0.050063688677604884,0,0,0.050063688677604884,12.966495367499665,0)" xlink:href="#A"/><use transform="matrix(0.050063688677604884,0,0,0.050063688677604884,22.97923310302064,0)" xlink:href="#D"/></g><path fill="#00184e" d="M390 276c167 0 266-82 266-251v-965H249v-142h587V28c-4 270-165 397-431 397-107 0-208-16-288-43V242c80 18 173 34 273 34zm246-1568v-192h200v192H636" id="E"/><path fill="#00184e" d="M615-1102c343 0 484 203 482 560-1 347-147 562-488 562-336 0-475-219-479-562-4-349 156-560 485-560zm-8 989c240 0 301-180 301-429 0-245-55-427-290-427-236 0-299 181-299 427 0 243 61 429 288 429" id="F"/><path fill="#00184e" d="M745-142h380V0H143v-142h422v-798H246v-142h499v940zM545-1292v-192h200v192H545" id="G"/><path fill="#00184e" d="M706-1102c241 0 344 136 343 381V0H868v-695c1-168-57-273-220-268-190 6-283 138-283 336V0H185c-3-360 6-732-6-1082h170c4 54 7 126 8 185h3c63-121 164-204 346-205" id="H"/><path fill="#00184e" d="M891-1484c-201 251-362 514-362 954 0 441 161 704 362 955H701C500 176 342-90 342-532c0-440 159-704 359-952h190" id="I"/><path fill="#00184e" d="M912-211c-10-84-18-177-18-274v-864h172V0H836L316-1130c7 79 16 167 16 254V0H162v-1349h222" id="J"/><path fill="#00184e" d="M-5 220v-96h1238v96H-5" id="K"/><path fill="#00184e" d="M148-1120c216-7 379-89 463-229h166v1204h353V0H157v-145h439v-1021c-79 124-254 184-448 194v-148" id="L"/><path fill="#00184e" d="M528-1484c201 248 357 511 357 952 0 442-156 709-357 957H336C537 174 700-89 700-530c0-440-163-703-364-954h192" id="M"/><g id="d"><use transform="matrix(0.010057437457554552,0,0,0.010057437457554552,0,0)" xlink:href="#E"/><use transform="matrix(0.010057437457554552,0,0,0.010057437457554552,12.360590635334544,0)" xlink:href="#F"/><use transform="matrix(0.010057437457554552,0,0,0.010057437457554552,24.72118127066909,0)" xlink:href="#G"/><use transform="matrix(0.010057437457554552,0,0,0.010057437457554552,37.08177190600363,0)" xlink:href="#H"/><use transform="matrix(0.010057437457554552,0,0,0.010057437457554552,49.44236254133818,0)" xlink:href="#I"/><use transform="matrix(0.010057437457554552,0,0,0.010057437457554552,61.80295317667272,0)" xlink:href="#J"/><use transform="matrix(0.010057437457554552,0,0,0.010057437457554552,74.16354381200726,0)" xlink:href="#K"/><use transform="matrix(0.010057437457554552,0,0,0.010057437457554552,86.52413444734181,0)" xlink:href="#L"/><use transform="matrix(0.010057437457554552,0,0,0.010057437457554552,98.88472508267635,0)" xlink:href="#M"/></g><path fill="#00184e" d="M873-819c-18-114-119-146-250-146-163 0-245 50-245 151 0 151 170 148 294 185 182 54 388 94 388 320 0 240-189 325-439 329-245 4-410-69-454-268l159-31c24 133 136 168 295 165 144-2 270-31 270-171 0-164-195-160-331-202-167-52-350-87-350-299 0-218 173-315 413-313 220 2 373 77 412 260" id="N"/><path fill="#00184e" d="M528 20c-247 0-343-132-343-381v-721h180v686c-4 177 45 284 224 277 194-8 279-136 279-336v-627h181c3 360-6 732 6 1082H885c-4-54-7-126-8-185h-3C809-64 714 20 528 20" id="O"/><path fill="#00184e" d="M631 20c-350 0-501-215-501-562 0-355 162-560 502-560 250 0 399 118 446 323l-192 14c-23-124-109-196-262-196-242 0-305 171-305 415 1 245 61 427 304 427 151 0 248-77 267-215l190 12C1039-107 883 20 631 20" id="P"/><g id="e"><use transform="matrix(0.007543078093165914,0,0,0.007543078093165914,0,0)" xlink:href="#N"/><use transform="matrix(0.007543078093165914,0,0,0.007543078093165914,9.270442976500908,0)" xlink:href="#O"/><use transform="matrix(0.007543078093165914,0,0,0.007543078093165914,18.540885953001816,0)" xlink:href="#P"/><use transform="matrix(0.007543078093165914,0,0,0.007543078093165914,27.81132892950272,0)" xlink:href="#P"/></g><path fill="#00184e" d="M116-856v-148h995v148H116zm0 512v-148h995v148H116" id="Q"/><use transform="matrix(0.007543078093165914,0,0,0.007543078093165914,0,0)" xlink:href="#Q" id="f"/><path fill="#00184e" d="M1060-1016c0 191-128 285-295 323v4c154 18 262 91 313 209 14 35 21 72 21 110 0 277-194 390-478 390-292 0-457-129-493-382l186-17c24 161 121 250 307 250 172 1 298-80 291-247-8-208-220-239-446-233v-156c217 9 409-34 409-232 0-152-102-225-264-225-159 0-264 88-278 233l-181-14c33-239 196-367 461-367 264 0 447 102 447 354" id="R"/><g id="g"><use transform="matrix(0.007543078093165914,0,0,0.007543078093165914,0,0)" xlink:href="#J"/><use transform="matrix(0.007543078093165914,0,0,0.007543078093165914,9.270442976500908,0)" xlink:href="#K"/><use transform="matrix(0.007543078093165914,0,0,0.007543078093165914,18.540885953001816,0)" xlink:href="#R"/></g><path fill="#00184e" d="M698-1104c312 3 392 244 392 558 0 315-82 566-392 566-169 0-277-65-331-184h-5c8 188 2 394 4 589H185V-858c0-76-1-156-6-224h175c6 52 9 120 10 178h4c58-122 150-202 330-200zm-49 991c225 0 255-203 255-433 0-225-32-419-253-419-236 0-285 192-285 441 0 237 53 411 283 411" id="S"/><path fill="#00184e" d="M839-1102c70 0 148 7 206 17v167c-112-18-268-36-363 15-129 69-208 203-208 395V0H294c-10-367 32-789-52-1082h171c21 75 41 161 48 250h5c67-152 152-270 373-270" id="T"/><path fill="#00184e" d="M617-1102c355 0 481 238 477 599H322c5 222 84 388 301 388 144 0 244-59 284-166l158 45C1002-72 854 20 623 20c-342 0-490-220-490-568 0-346 151-554 484-554zm291 461c-18-192-90-328-289-328-194 0-287 128-295 328h584" id="U"/><path fill="#00184e" d="M865-914c-3-187-2-380-2-570h180v1261c0 76 1 155 6 223H877c-8-49-9-116-10-174h-5C801-44 708 26 530 26c-135 0-234-46-297-139s-95-232-95-419c0-377 131-566 392-566 176 0 271 63 335 184zm-286-51c-222 0-255 197-255 427 0 229 31 425 253 425 237 0 286-195 286-441 0-238-52-411-284-411" id="V"/><g id="h"><use transform="matrix(0.007543078093165914,0,0,0.007543078093165914,0,0)" xlink:href="#S"/><use transform="matrix(0.007543078093165914,0,0,0.007543078093165914,9.270442976500908,0)" xlink:href="#T"/><use transform="matrix(0.007543078093165914,0,0,0.007543078093165914,18.540885953001816,0)" xlink:href="#U"/><use transform="matrix(0.007543078093165914,0,0,0.007543078093165914,27.81132892950272,0)" xlink:href="#V"/></g><g id="i"><use transform="matrix(0.007543078093165914,0,0,0.007543078093165914,0,0)" xlink:href="#J"/><use transform="matrix(0.007543078093165914,0,0,0.007543078093165914,9.270442976500908,0)" xlink:href="#F"/><use transform="matrix(0.007543078093165914,0,0,0.007543078093165914,18.540885953001816,0)" xlink:href="#H"/><use transform="matrix(0.007543078093165914,0,0,0.007543078093165914,27.81132892950272,0)" xlink:href="#U"/></g><path fill="#00184e" d="M682 16c-209 0-323-80-324-285v-671H190v-142h170l58-282h120v282h432v142H538v652c2 114 60 155 182 155 106 0 209-16 297-34v137C921-4 806 16 682 16" id="W"/><path fill="#00184e" d="M1000-272c3 95 12 159 101 161 21 0 41-3 59-7V-6c-44 10-86 16-139 16-141 2-191-84-197-217h-6C748-76 648 20 446 20c-207 0-318-120-318-322 0-266 194-348 454-354l236-4c12-191-40-305-222-305-140 0-220 47-232 172l-188-17c33-204 181-292 423-292 255 0 401 118 401 364v466zm-683-27c0 109 63 184 175 182 166-3 259-96 306-217 24-65 20-120 20-200-232 7-501-28-501 235" id="X"/><path fill="#00184e" d="M365-904c58-129 161-200 334-200 130 0 228 46 293 138s98 233 98 420c0 189-34 331-102 425S824 20 698 20c-170 0-275-64-336-184 0 55-3 116-9 164H179c5-68 6-147 6-223v-1261h180c-2 193 4 394-4 580h4zm283 791c221 0 256-197 256-427 0-229-34-425-254-425-236 0-285 195-285 441 0 237 53 411 283 411" id="Y"/><path fill="#00184e" d="M736-142h380V0H134v-142h422v-1200H267v-142h469v1342" id="Z"/><path fill="#00184e" d="M147 0v-137l681-806H187v-139h844v137L349-139h719V0H147" id="aa"/><g id="j"><use transform="matrix(0.010057437457554552,0,0,0.010057437457554552,0,0)" xlink:href="#N"/><use transform="matrix(0.010057437457554552,0,0,0.010057437457554552,12.360590635334544,0)" xlink:href="#W"/><use transform="matrix(0.010057437457554552,0,0,0.010057437457554552,24.72118127066909,0)" xlink:href="#X"/><use transform="matrix(0.010057437457554552,0,0,0.010057437457554552,37.08177190600363,0)" xlink:href="#Y"/><use transform="matrix(0.010057437457554552,0,0,0.010057437457554552,49.44236254133818,0)" xlink:href="#G"/><use transform="matrix(0.010057437457554552,0,0,0.010057437457554552,61.80295317667272,0)" xlink:href="#Z"/><use transform="matrix(0.010057437457554552,0,0,0.010057437457554552,74.16354381200726,0)" xlink:href="#G"/><use transform="matrix(0.010057437457554552,0,0,0.010057437457554552,86.52413444734181,0)" xlink:href="#aa"/><use transform="matrix(0.010057437457554552,0,0,0.010057437457554552,98.88472508267635,0)" xlink:href="#U"/><use transform="matrix(0.010057437457554552,0,0,0.010057437457554552,111.2453157180109,0)" xlink:href="#I"/><use transform="matrix(0.010057437457554552,0,0,0.010057437457554552,123.60590635334545,0)" xlink:href="#M"/></g><path fill="#00184e" d="M385-1193v494h676v158H385V0H194v-1349h891v156H385" id="ab"/><path fill="#00184e" d="M614-1226c-167 1-283 53-283 213 0 183 186 193 334 234 230 63 463 120 463 409 0 286-219 387-518 390C309 23 131-98 79-338l185-37c34 165 149 248 351 246 184-2 324-58 324-238 0-203-207-221-372-266-210-57-422-111-422-377 0-267 201-356 470-360 279-5 430 101 480 324l-188 33c-28-141-121-215-293-213" id="ac"/><path fill="#00184e" d="M611-1370c266 0 451 106 451 368 0 147-77 243-154 327-132 144-316 255-451 395-42 44-75 87-96 134h723V0H144v-117c124-264 387-411 582-603 73-72 151-147 151-271 0-161-104-231-266-231-163 0-249 90-268 238l-184-17c35-233 185-369 452-369" id="ad"/><g id="k"><use transform="matrix(0.008800257775360233,0,0,0.008800257775360233,0,0)" xlink:href="#ab"/><use transform="matrix(0.008800257775360233,0,0,0.008800257775360233,10.815516805917726,0)" xlink:href="#G"/><use transform="matrix(0.008800257775360233,0,0,0.008800257775360233,21.631033611835452,0)" xlink:href="#H"/><use transform="matrix(0.008800257775360233,0,0,0.008800257775360233,32.44655041775318,0)" xlink:href="#V"/><use transform="matrix(0.008800257775360233,0,0,0.008800257775360233,43.262067223670904,0)" xlink:href="#ac"/><use transform="matrix(0.008800257775360233,0,0,0.008800257775360233,54.07758402958863,0)" xlink:href="#O"/><use transform="matrix(0.008800257775360233,0,0,0.008800257775360233,64.89310083550636,0)" xlink:href="#P"/><use transform="matrix(0.008800257775360233,0,0,0.008800257775360233,75.70861764142408,0)" xlink:href="#P"/><use transform="matrix(0.008800257775360233,0,0,0.008800257775360233,86.52413444734181,0)" xlink:href="#U"/><use transform="matrix(0.008800257775360233,0,0,0.008800257775360233,97.33965125325953,0)" xlink:href="#N"/><use transform="matrix(0.008800257775360233,0,0,0.008800257775360233,108.15516805917726,0)" xlink:href="#N"/><use transform="matrix(0.008800257775360233,0,0,0.008800257775360233,118.97068486509498,0)" xlink:href="#F"/><use transform="matrix(0.008800257775360233,0,0,0.008800257775360233,129.78620167101272,0)" xlink:href="#T"/><use transform="matrix(0.008800257775360233,0,0,0.008800257775360233,140.60171847693044,0)" xlink:href="#I"/><use transform="matrix(0.008800257775360233,0,0,0.008800257775360233,151.41723528284817,0)" xlink:href="#ad"/><use transform="matrix(0.008800257775360233,0,0,0.008800257775360233,162.2327520887659,0)" xlink:href="#M"/></g><g id="l"><use transform="matrix(0.008800257775360233,0,0,0.008800257775360233,0,0)" xlink:href="#J"/><use transform="matrix(0.008800257775360233,0,0,0.008800257775360233,10.815516805917726,0)" xlink:href="#K"/><use transform="matrix(0.008800257775360233,0,0,0.008800257775360233,21.631033611835452,0)" xlink:href="#R"/></g><path fill="#00184e" d="M839-1335c-182-6-269 67-259 253h491v142H580V0H400v-940H138v-142h262c-15-293 132-408 418-402 94 2 200 7 281 21v145c-75-10-177-14-260-17" id="ae"/><path fill="#00184e" d="M168 279c222 39 310-114 368-290L66-1082h192c120 299 249 590 362 896 115-301 235-597 351-896h190L705 0c-65 164-130 320-275 396-67 36-177 35-262 18V279" id="af"/><g id="m"><use transform="matrix(0.008800257775360233,0,0,0.008800257775360233,0,0)" xlink:href="#J"/><use transform="matrix(0.008800257775360233,0,0,0.008800257775360233,10.815516805917726,0)" xlink:href="#F"/><use transform="matrix(0.008800257775360233,0,0,0.008800257775360233,21.631033611835452,0)" xlink:href="#W"/><use transform="matrix(0.008800257775360233,0,0,0.008800257775360233,32.44655041775318,0)" xlink:href="#G"/><use transform="matrix(0.008800257775360233,0,0,0.008800257775360233,43.262067223670904,0)" xlink:href="#ae"/><use transform="matrix(0.008800257775360233,0,0,0.008800257775360233,54.07758402958863,0)" xlink:href="#af"/><use transform="matrix(0.008800257775360233,0,0,0.008800257775360233,64.89310083550636,0)" xlink:href="#I"/><use transform="matrix(0.008800257775360233,0,0,0.008800257775360233,75.70861764142408,0)" xlink:href="#J"/><use transform="matrix(0.008800257775360233,0,0,0.008800257775360233,86.52413444734181,0)" xlink:href="#K"/><use transform="matrix(0.008800257775360233,0,0,0.008800257775360233,97.33965125325953,0)" xlink:href="#ad"/><use transform="matrix(0.008800257775360233,0,0,0.008800257775360233,108.15516805917726,0)" xlink:href="#M"/></g><g id="n"><use transform="matrix(0.007543078093165914,0,0,0.007543078093165914,0,0)" xlink:href="#J"/><use transform="matrix(0.007543078093165914,0,0,0.007543078093165914,9.270442976500908,0)" xlink:href="#K"/><use transform="matrix(0.007543078093165914,0,0,0.007543078093165914,18.540885953001816,0)" xlink:href="#ad"/></g><path fill="#00184e" d="M30-248c87 1 191-15 191 75 0 78-77 80-158 76V0H30v-248zm33 125c57 0 124 11 124-50 0-59-68-47-124-48v98" id="ag"/><path fill="#00184e" d="M114-163C36-179 61-72 57 0H25l-1-190h30c1 12-1 29 2 39 6-27 23-49 58-41v29" id="ah"/><path fill="#00184e" d="M100-194c63 0 86 42 84 106H49c0 40 14 67 53 68 26 1 43-12 49-29l28 8c-11 28-37 45-77 45C44 4 14-33 15-96c1-61 26-98 85-98zm52 81c6-60-76-77-97-28-3 7-6 17-6 28h103" id="ai"/><path fill="#00184e" d="M85-194c31 0 48 13 60 33l-1-100h32l1 261h-30c-2-10 0-23-3-31C134-8 116 4 85 4 32 4 16-35 15-94c0-66 23-100 70-100zm9 24c-40 0-46 34-46 75 0 40 6 74 45 74 42 0 51-32 51-76 0-42-9-74-50-73" id="aj"/><path fill="#00184e" d="M96-169c-40 0-48 33-48 73s9 75 48 75c24 0 41-14 43-38l32 2c-6 37-31 61-74 61-59 0-76-41-82-99-10-93 101-131 147-64 4 7 5 14 7 22l-32 3c-4-21-16-35-41-35" id="ak"/><path fill="#00184e" d="M135-143c-3-34-86-38-87 0 15 53 115 12 119 90S17 21 10-45l28-5c4 36 97 45 98 0-10-56-113-15-118-90-4-57 82-63 122-42 12 7 21 19 24 35" id="al"/><path fill="#00184e" d="M100-194c62-1 85 37 85 99 1 63-27 99-86 99S16-35 15-95c0-66 28-99 85-99zM99-20c44 1 53-31 53-75 0-43-8-75-51-75s-53 32-53 75 10 74 51 75" id="am"/><path fill="#00184e" d="M87 75C49 33 22-17 22-94c0-76 28-126 65-167h31c-38 41-64 92-64 168S80 34 118 75H87" id="an"/><path fill="#00184e" d="M33-261c38 41 65 92 65 168S71 34 33 75H2C39 34 66-17 66-93S39-220 2-261h31" id="ao"/><g id="o"><use transform="matrix(0.050063688677604884,0,0,0.050063688677604884,0,0)" xlink:href="#ag"/><use transform="matrix(0.050063688677604884,0,0,0.050063688677604884,12.015285282625172,0)" xlink:href="#ah"/><use transform="matrix(0.050063688677604884,0,0,0.050063688677604884,17.972864235260154,0)" xlink:href="#ai"/><use transform="matrix(0.050063688677604884,0,0,0.050063688677604884,27.98560197078113,0)" xlink:href="#aj"/><use transform="matrix(0.050063688677604884,0,0,0.050063688677604884,37.99833970630211,0)" xlink:href="#ai"/><use transform="matrix(0.050063688677604884,0,0,0.050063688677604884,48.01107744182309,0)" xlink:href="#ak"/><use transform="matrix(0.050063688677604884,0,0,0.050063688677604884,57.022541403791976,0)" xlink:href="#ai"/><use transform="matrix(0.050063688677604884,0,0,0.050063688677604884,67.03527913931295,0)" xlink:href="#al"/><use transform="matrix(0.050063688677604884,0,0,0.050063688677604884,76.04674310128183,0)" xlink:href="#al"/><use transform="matrix(0.050063688677604884,0,0,0.050063688677604884,85.0582070632507,0)" xlink:href="#am"/><use transform="matrix(0.050063688677604884,0,0,0.050063688677604884,95.07094479877168,0)" xlink:href="#ah"/><use transform="matrix(0.050063688677604884,0,0,0.050063688677604884,101.02852375140665,0)" xlink:href="#an"/><use transform="matrix(0.050063688677604884,0,0,0.050063688677604884,106.98610270404164,0)" xlink:href="#ao"/></g><path fill="#00184e" d="M622-1349c296 4 497 117 497 404 0 282-193 424-485 431H353V0H162v-1349h460zm-15 684c195-3 320-88 320-277 0-184-129-255-328-254H353v531h254" id="ap"/><g id="p"><use transform="matrix(0.008800257775360233,0,0,0.008800257775360233,0,0)" xlink:href="#ap"/><use transform="matrix(0.008800257775360233,0,0,0.008800257775360233,10.815516805917726,0)" xlink:href="#T"/><use transform="matrix(0.008800257775360233,0,0,0.008800257775360233,21.631033611835452,0)" xlink:href="#U"/><use transform="matrix(0.008800257775360233,0,0,0.008800257775360233,32.44655041775318,0)" xlink:href="#V"/><use transform="matrix(0.008800257775360233,0,0,0.008800257775360233,43.262067223670904,0)" xlink:href="#U"/><use transform="matrix(0.008800257775360233,0,0,0.008800257775360233,54.07758402958863,0)" xlink:href="#P"/><use transform="matrix(0.008800257775360233,0,0,0.008800257775360233,64.89310083550636,0)" xlink:href="#U"/><use transform="matrix(0.008800257775360233,0,0,0.008800257775360233,75.70861764142408,0)" xlink:href="#N"/><use transform="matrix(0.008800257775360233,0,0,0.008800257775360233,86.52413444734181,0)" xlink:href="#N"/><use transform="matrix(0.008800257775360233,0,0,0.008800257775360233,97.33965125325953,0)" xlink:href="#F"/><use transform="matrix(0.008800257775360233,0,0,0.008800257775360233,108.15516805917726,0)" xlink:href="#T"/><use transform="matrix(0.008800257775360233,0,0,0.008800257775360233,118.97068486509498,0)" xlink:href="#I"/><use transform="matrix(0.008800257775360233,0,0,0.008800257775360233,129.78620167101272,0)" xlink:href="#M"/></g><g id="q"><use transform="matrix(0.008800257775360233,0,0,0.008800257775360233,0,0)" xlink:href="#J"/><use transform="matrix(0.008800257775360233,0,0,0.008800257775360233,10.815516805917726,0)" xlink:href="#K"/><use transform="matrix(0.008800257775360233,0,0,0.008800257775360233,21.631033611835452,0)" xlink:href="#ad"/></g><g id="r"><use transform="matrix(0.007543078093165914,0,0,0.007543078093165914,0,0)" xlink:href="#J"/><use transform="matrix(0.007543078093165914,0,0,0.007543078093165914,9.270442976500908,0)" xlink:href="#K"/><use transform="matrix(0.007543078093165914,0,0,0.007543078093165914,18.540885953001816,0)" xlink:href="#ad"/></g><path fill="#00184e" d="M59-47c-2 24 18 29 38 22v24C64 9 27 4 27-40v-127H5v-23h24l9-43h21v43h35v23H59v120" id="aq"/><path fill="#00184e" d="M24-231v-30h32v30H24zM24 0v-190h32V0H24" id="ar"/><path fill="#00184e" d="M101-234c-31-9-42 10-38 44h38v23H63V0H32v-167H5v-23h27c-7-52 17-82 69-68v24" id="as"/><path fill="#00184e" d="M179-190L93 31C79 59 56 82 12 73V49c39 6 53-20 64-50L1-190h34L92-34l54-156h33" id="at"/><g id="t"><use transform="matrix(0.050063688677604884,0,0,0.050063688677604884,0,0)" xlink:href="#z"/><use transform="matrix(0.050063688677604884,0,0,0.050063688677604884,12.966495367499665,0)" xlink:href="#am"/><use transform="matrix(0.050063688677604884,0,0,0.050063688677604884,22.97923310302064,0)" xlink:href="#aq"/><use transform="matrix(0.050063688677604884,0,0,0.050063688677604884,27.98560197078113,0)" xlink:href="#ar"/><use transform="matrix(0.050063688677604884,0,0,0.050063688677604884,31.940633376311915,0)" xlink:href="#as"/><use transform="matrix(0.050063688677604884,0,0,0.050063688677604884,36.9470022440724,0)" xlink:href="#at"/><use transform="matrix(0.050063688677604884,0,0,0.050063688677604884,45.95846620604128,0)" xlink:href="#an"/><use transform="matrix(0.050063688677604884,0,0,0.050063688677604884,51.91604515867626,0)" xlink:href="#z"/><use transform="matrix(0.050063688677604884,0,0,0.050063688677604884,64.88254052617593,0)" xlink:href="#A"/><use transform="matrix(0.050063688677604884,0,0,0.050063688677604884,74.8952782616969,0)" xlink:href="#C"/><use transform="matrix(0.050063688677604884,0,0,0.050063688677604884,84.90801599721787,0)" xlink:href="#ao"/></g><g id="u"><use transform="matrix(0.007543078093165914,0,0,0.007543078093165914,0,0)" xlink:href="#J"/><use transform="matrix(0.007543078093165914,0,0,0.007543078093165914,9.270442976500908,0)" xlink:href="#K"/><use transform="matrix(0.007543078093165914,0,0,0.007543078093165914,18.540885953001816,0)" xlink:href="#L"/></g><path fill="#00184e" d="M206 0h-36l-40-164L89 0H53L-1-190h32L70-26l43-164h34l41 164 42-164h31" id="au"/><path fill="#00184e" d="M141-36C126-15 110 5 73 4 37 3 15-17 15-53c-1-64 63-63 125-63 3-35-9-54-41-54-24 1-41 7-42 31l-33-3c5-37 33-52 76-52 45 0 72 20 72 64v82c-1 20 7 32 28 27v20c-31 9-61-2-59-35zM48-53c0 20 12 33 32 33 41-3 63-29 60-74-43 2-92-5-92 41" id="av"/><path fill="#00184e" d="M117-194c89-4 53 116 60 194h-32v-121c0-31-8-49-39-48C34-167 62-67 57 0H25l-1-190h30c1 10-1 24 2 32 11-22 29-35 61-36" id="aw"/><g id="w"><use transform="matrix(0.042911733152232755,0,0,0.042911733152232755,0,0)" xlink:href="#au"/><use transform="matrix(0.042911733152232755,0,0,0.042911733152232755,11.114138886428284,0)" xlink:href="#av"/><use transform="matrix(0.042911733152232755,0,0,0.042911733152232755,19.696485516874837,0)" xlink:href="#aw"/><use transform="matrix(0.042911733152232755,0,0,0.042911733152232755,28.278832147321392,0)" xlink:href="#aq"/><use transform="matrix(0.042911733152232755,0,0,0.042911733152232755,32.570005462544664,0)" xlink:href="#al"/></g><g id="x"><use transform="matrix(0.042911733152232755,0,0,0.042911733152232755,0,0)" xlink:href="#aq"/><use transform="matrix(0.042911733152232755,0,0,0.042911733152232755,4.291173315223276,0)" xlink:href="#am"/></g><path fill="#00184e" d="M24-231v-30h32v30H24zM-9 49c24 4 33-6 33-30v-209h32V24c2 40-23 58-65 49V49" id="ax"/><g id="y"><use transform="matrix(0.042911733152232755,0,0,0.042911733152232755,0,0)" xlink:href="#ax"/><use transform="matrix(0.042911733152232755,0,0,0.042911733152232755,3.3900269190263876,0)" xlink:href="#am"/><use transform="matrix(0.042911733152232755,0,0,0.042911733152232755,11.97237354947294,0)" xlink:href="#ar"/><use transform="matrix(0.042911733152232755,0,0,0.042911733152232755,15.362400468499326,0)" xlink:href="#aw"/></g></defs></g></svg>